<svg width="40" height="40" viewBox="0 0 40 40" fill="none" xmlns="http://www.w3.org/2000/svg">
<g clip-path="url(#clip0_3_12052)">
<g clip-path="url(#clip1_3_12052)">
<g clip-path="url(#clip2_3_12052)">
<path d="M36.64 0H3.36C1.50432 0 0 1.50432 0 3.36V36.64C0 38.4957 1.50432 40 3.36 40H36.64C38.4957 40 40 38.4957 40 36.64V3.36C40 1.50432 38.4957 0 36.64 0Z" fill="#CF302A"/>
<path d="M29.4002 11.4534V6.98309H26.4498L24.304 8.05598L21.89 9.93352L20.3701 12.3475L19.2972 14.8509L18.1349 18.159L17.062 21.3776L15.5421 24.2386L14.3798 26.1162L12.5023 27.0102H11.0718V32.1958H12.0553L15.5421 31.123L18.6714 28.2619L20.9065 24.5963L21.89 22.0929H22.7841H24.751H26.8968L27.7909 21.3776V19.6789V17.6225L26.8968 17.1755H23.4099L23.7676 15.8344L24.751 13.8674L26.8968 12.3475L29.4002 11.4534Z" fill="white"/>
<path d="M24.4599 16.1175C25.5512 16.1175 26.5309 16.1165 27.5106 16.1175C28.3887 16.1185 28.6867 16.4109 28.6877 17.2741C28.6897 18.7637 28.6897 20.2533 28.6877 21.7439C28.6867 22.5793 28.3807 22.8806 27.5326 22.8816C26.0605 22.8836 24.5884 22.9024 23.1173 22.8697C22.6738 22.8598 22.4875 22.9827 22.3439 23.4109C21.429 26.1581 19.9051 28.5179 17.6726 30.394C15.75 32.0084 13.5444 32.9361 11.0019 32.9995C10.3929 33.0144 10.0122 32.6844 10.0082 32.0758C9.99726 30.4416 9.99726 28.8063 10.0082 27.172C10.0122 26.5863 10.3341 26.3008 10.97 26.2404C11.3906 26.2007 11.8182 26.1829 12.2298 26.0947C13.7816 25.7607 14.7643 24.7211 15.3314 23.3375C16.0141 21.6715 16.5772 19.955 17.1633 18.2513C17.9566 15.9471 18.7191 13.6309 19.947 11.5051C21.0104 9.66364 22.3958 8.13639 24.3233 7.15027C25.5781 6.50805 26.9206 6.18298 28.3169 6.05315C28.6598 6.02144 29.0056 6.01648 29.3495 6.00161C29.9864 5.97386 30.3721 6.30488 30.376 6.93025C30.387 8.55165 30.386 10.1731 30.376 11.7954C30.3731 12.4079 30.0571 12.7033 29.4053 12.7588C28.8252 12.8083 28.2432 12.839 27.6671 12.9164C26.6346 13.0541 25.8243 13.5586 25.306 14.4684C25.015 14.9798 24.7668 15.5159 24.4589 16.1185L24.4599 16.1175ZM11.7135 31.2622C13.6142 31.0501 15.2128 30.279 16.6121 29.0927C18.8078 27.2315 20.1961 24.8608 20.9845 22.1225C21.2077 21.3484 21.42 21.1829 22.2174 21.1829C23.6097 21.1819 25.002 21.1829 26.3944 21.1829C26.5758 21.1829 26.7572 21.1829 26.9455 21.1829V17.8182C26.7691 17.8182 26.6236 17.8182 26.4791 17.8182C25.4186 17.8182 24.3572 17.8261 23.2967 17.8152C22.4645 17.8063 22.0868 17.2275 22.4316 16.4842C22.8303 15.624 23.231 14.7627 23.6665 13.9203C24.2366 12.8172 25.0588 11.9481 26.2708 11.5576C26.9326 11.3445 27.6312 11.2305 28.3219 11.1265C28.611 11.0829 28.6997 11.0075 28.6937 10.7211C28.6767 9.82519 28.6887 8.92826 28.6857 8.03233C28.6857 7.93322 28.6648 7.83411 28.6528 7.72311C27.6123 7.78952 26.6316 7.98575 25.6917 8.36632C23.7991 9.13242 22.4914 10.5298 21.4908 12.2464C20.4563 14.0214 19.7606 15.9411 19.0838 17.8688C18.3952 19.8301 17.7802 21.8212 17.0078 23.7488C16.3161 25.4753 15.163 26.8588 13.3291 27.5218C12.8128 27.7082 12.2637 27.8053 11.7125 27.948V31.2632L11.7135 31.2622Z" fill="white"/>
</g>
</g>
<rect x="1.2" y="1.2" width="37.6" height="37.6" rx="3.8" stroke="#8A1713" stroke-width="2.4"/>
</g>
<defs>
<clipPath id="clip0_3_12052">
<rect width="40" height="40" fill="white"/>
</clipPath>
<clipPath id="clip1_3_12052">
<rect width="40" height="40" rx="5" fill="white"/>
</clipPath>
<clipPath id="clip2_3_12052">
<rect width="40" height="40" fill="white"/>
</clipPath>
</defs>
</svg>
